<?xml version="1.0" standalone="no"?>
<!DOCTYPE svg PUBLIC "-//W3C//DTD SVG 20010904//EN"
 "http://www.w3.org/TR/2001/REC-SVG-20010904/DTD/svg10.dtd">
<svg version="1.0" xmlns="http://www.w3.org/2000/svg"
 width="163.000000pt" height="36.000000pt" viewBox="0 0 163.000000 36.000000"
 preserveAspectRatio="xMidYMid meet">

<g transform="translate(0.000000,36.000000) scale(0.100000,-0.100000)"
fill="#000000" stroke="none">
<path d="M1293 349 c-46 -13 -100 -71 -113 -121 -29 -106 37 -206 148 -224 51
-8 118 14 152 51 l22 24 -32 20 c-33 20 -34 20 -58 0 -36 -28 -96 -25 -127 6
-36 35 -36 115 0 150 31 32 91 34 128 5 24 -19 26 -19 56 -3 17 10 31 21 31
25 0 14 -63 58 -98 68 -44 12 -65 12 -109 -1z"/>
<path d="M100 180 l0 -170 90 0 c59 0 101 5 118 14 102 53 129 189 54 269 -45
48 -73 57 -172 57 l-90 0 0 -170z m169 89 c17 -6 36 -19 41 -29 13 -24 13 -96
0 -120 -11 -21 -60 -40 -101 -40 l-29 0 0 100 0 100 29 0 c15 0 42 -5 60 -11z"/>
<path d="M460 180 l0 -170 110 0 110 0 0 35 0 35 -70 0 -70 0 0 35 0 35 60 0
60 0 0 35 0 35 -60 0 -60 0 0 30 0 30 70 0 70 0 0 35 0 35 -110 0 -110 0 0
-170z"/>
<path d="M696 328 c4 -13 28 -88 53 -168 l47 -145 55 -3 55 -3 55 171 55 170
-46 0 -46 0 -33 -115 c-19 -63 -37 -112 -41 -110 -4 3 -11 17 -15 32 -3 16
-18 65 -31 111 l-25 82 -45 0 c-42 0 -45 -1 -38 -22z"/>
<path d="M1050 180 l0 -170 40 0 40 0 0 170 0 170 -40 0 -40 0 0 -170z"/>
</g>
</svg>
