<?xml version="1.0" standalone="no"?>
<!DOCTYPE svg PUBLIC "-//W3C//DTD SVG 20010904//EN"
 "http://www.w3.org/TR/2001/REC-SVG-20010904/DTD/svg10.dtd">
<svg version="1.0" xmlns="http://www.w3.org/2000/svg"
 width="167.000000pt" height="36.000000pt" viewBox="0 0 167.000000 36.000000"
 preserveAspectRatio="xMidYMid meet">

<g transform="translate(0.000000,36.000000) scale(0.100000,-0.100000)"
fill="#000000" stroke="none">
<path d="M1187 346 c-50 -18 -76 -42 -98 -91 -77 -167 108 -320 264 -219 45
30 46 44 6 67 -30 16 -32 16 -56 -3 -30 -24 -80 -26 -110 -5 -50 35 -50 135 0
170 30 21 80 19 110 -5 25 -20 28 -20 57 -5 37 19 37 27 3 60 -47 43 -110 54
-176 31z"/>
<path d="M20 180 l0 -172 99 4 c116 4 142 17 179 88 28 56 28 104 -1 160 -36
71 -62 84 -178 88 l-99 4 0 -172z m197 65 c15 -17 23 -39 23 -65 0 -56 -33
-90 -93 -97 l-47 -6 0 103 0 103 47 -6 c35 -4 53 -12 70 -32z"/>
<path d="M360 180 l0 -170 105 0 105 0 0 35 0 35 -65 0 -65 0 0 35 0 35 60 0
60 0 0 35 0 35 -60 0 -60 0 0 30 0 30 65 0 65 0 0 35 0 35 -105 0 -105 0 0
-170z"/>
<path d="M600 343 c1 -5 25 -80 53 -168 l53 -160 51 -3 51 -3 56 168 55 168
-40 3 c-23 2 -43 1 -46 -2 -2 -2 -18 -51 -35 -108 -17 -56 -34 -106 -37 -111
-4 -4 -22 45 -41 108 l-33 115 -43 0 c-24 0 -44 -3 -44 -7z"/>
<path d="M950 180 l0 -170 40 0 40 0 0 170 0 170 -40 0 -40 0 0 -170z"/>
<path d="M1440 180 l0 -170 105 0 105 0 0 35 0 35 -65 0 -65 0 0 35 0 35 60 0
60 0 0 35 0 35 -60 0 -60 0 0 30 0 30 65 0 65 0 0 35 0 35 -105 0 -105 0 0
-170z"/>
</g>
</svg>
